<svg xmlns="http://www.w3.org/2000/svg" x="0px" y="0px" width="52" height="52" viewBox="0 0 172 172" style=" fill:#000000;"><g fill="none" fill-rule="nonzero" stroke="none" stroke-width="1" stroke-linecap="butt" stroke-linejoin="miter" stroke-miterlimit="10" stroke-dasharray="" stroke-dashoffset="0" font-family="none" font-weight="none" font-size="none" text-anchor="none" style="mix-blend-mode: normal"><path d="M0,172v-172h172v172z" fill="none"></path><g fill="#333333"><path d="M86,0c-46.79868,0 -86,33.59375 -86,76.07692c0,20.05288 8.99279,38.03846 23.15385,51.47596c-1.24038,3.28185 -3.4369,7.77824 -7.23558,12.40385c-4.54808,5.55589 -9.84555,10.67247 -13.4375,13.64423c-2.19651,1.75721 -3.04928,4.70313 -2.11899,7.36478c0.93029,2.63582 3.4369,4.41887 6.25361,4.41887c14.65204,0 25.19531,-0.15504 34.73077,-2.6875c8.52765,-2.2482 15.86659,-7.00301 23.36058,-13.64423c6.82212,1.62801 13.85096,3.10096 21.29327,3.10096c46.79868,0 86,-33.59375 86,-76.07692c0,-42.48317 -39.20132,-76.07692 -86,-76.07692zM86,13.23077c40.51923,0 72.76923,28.58053 72.76923,62.84615c0,34.26563 -32.25,62.84615 -72.76923,62.84615c-7.20974,0 -14.67788,-1.24038 -21.5,-3.10096c-2.22235,-0.56851 -4.54808,0.07753 -6.20192,1.65385c-7.44231,7.13221 -12.92067,10.46574 -20.25962,12.40385c-3.38522,0.90445 -9.87139,0.67188 -14.47115,1.03365c0.93029,-1.03365 1.78305,-1.60216 2.6875,-2.6875c5.19411,-6.35697 9.94892,-13.07572 11.37019,-20.67308c0.41346,-2.32572 -0.46514,-4.67728 -2.27404,-6.20192c-13.85096,-11.44772 -22.12019,-27.49519 -22.12019,-45.27404c0,-34.26562 32.25,-62.84615 72.76923,-62.84615zM73.38942,39.07212c-1.16286,0.25842 -2.2482,0.82692 -3.10096,1.65385l-9.92308,9.30288l8.88942,9.71635l7.85577,-7.44231h15.91827l6.20192,7.02885v9.71635l-16.95192,11.37019c-1.83474,1.26622 -2.92007,3.35938 -2.89423,5.58173v13.23077h13.23077v-9.50962l16.95192,-11.37019c1.83474,-1.26622 2.92007,-3.35937 2.89423,-5.58173v-15.91827c0,-1.60216 -0.59435,-3.15264 -1.65385,-4.34135l-9.92308,-11.16346c-1.24038,-1.44712 -3.04928,-2.27404 -4.96154,-2.27404h-21.08654c-0.49099,-0.05168 -0.95613,-0.05168 -1.44712,0zM79.38462,105.84615v13.23077h13.23077v-13.23077z"></path></g></g></svg>